<?xml version="1.0" encoding="utf-8"?>
<!-- Generator: Adobe Illustrator 26.2.1, SVG Export Plug-In . SVG Version: 6.00 Build 0)  -->
<svg version="1.1" id="Layer_1" xmlns="http://www.w3.org/2000/svg" xmlns:xlink="http://www.w3.org/1999/xlink" x="0px" y="0px"
	 viewBox="0 0 40 40" style="enable-background:new 0 0 40 40;" xml:space="preserve">
<style type="text/css">
	.st0{fill:#FFA500;}
</style>
<g id="day">
	<g transform="translate(32,32)">
		<g>
			<g>
				<path class="st0" d="M-12,4.3c-0.7,0-1.3-0.6-1.3-1.3v-3.8c0-0.7,0.6-1.3,1.3-1.3s1.3,0.6,1.3,1.3v3.8
					C-10.7,3.8-11.3,4.3-12,4.3z"/>
			</g>
			<g transform="rotate(45)">
				<path class="st0" d="M-16.1,16c-0.2,0.2-0.5,0.4-0.9,0.4c-0.7,0-1.3-0.6-1.3-1.3l0-3.8c0-0.7,0.6-1.3,1.3-1.3s1.3,0.6,1.3,1.3
					l0,3.8C-15.7,15.4-15.9,15.7-16.1,16z"/>
			</g>
			<g transform="rotate(90)">
				<path class="st0" d="M-10.7,23.3v3.8c0,0.7-0.6,1.3-1.3,1.3s-1.3-0.6-1.3-1.3v-3.8c0-0.7,0.6-1.3,1.3-1.3S-10.7,22.6-10.7,23.3z
					"/>
			</g>
			<g transform="rotate(135)">
				<path class="st0" d="M0.9,27.4c0.2,0.2,0.4,0.5,0.4,0.9V32c0,0.7-0.6,1.3-1.3,1.3s-1.3-0.6-1.3-1.3v-3.8c0-0.7,0.6-1.3,1.3-1.3
					C0.3,27,0.7,27.2,0.9,27.4z"/>
			</g>
			<g transform="rotate(180)">
				<path class="st0" d="M12,22c0.7,0,1.3,0.6,1.3,1.3v3.8c0,0.7-0.6,1.3-1.3,1.3s-1.3-0.6-1.3-1.3v-3.8C10.7,22.6,11.3,22,12,22z"
					/>
			</g>
			<g transform="rotate(225)">
				<path class="st0" d="M16.1,10.4c0.2-0.2,0.5-0.4,0.9-0.4c0.7,0,1.3,0.6,1.3,1.3l0,3.8c0,0.7-0.6,1.3-1.3,1.3
					c-0.7,0-1.3-0.6-1.3-1.3l0-3.8C15.7,11,15.9,10.6,16.1,10.4z"/>
			</g>
			<g transform="rotate(270)">
				<path class="st0" d="M10.7,3.1v-3.8C10.7-1.4,11.3-2,12-2s1.3,0.6,1.3,1.3v3.8c0,0.7-0.6,1.3-1.3,1.3S10.7,3.8,10.7,3.1z"/>
			</g>
			<g transform="rotate(315)">
				<path class="st0" d="M-0.9-1c-0.2-0.2-0.4-0.5-0.4-0.9v-3.8c0-0.7,0.6-1.3,1.3-1.3s1.3,0.6,1.3,1.3v3.8c0,0.7-0.6,1.3-1.3,1.3
					C-0.3-0.6-0.7-0.8-0.9-1z"/>
			</g>
		</g>
		<g>
			<path class="st0" d="M-12-4.5c-4.2,0-7.5-3.4-7.5-7.5s3.4-7.5,7.5-7.5s7.5,3.4,7.5,7.5S-7.8-4.5-12-4.5z"/>
		</g>
	</g>
</g>
</svg>
