<?xml version="1.0" encoding="utf-8"?>
<!-- Generator: Adobe Illustrator 26.2.1, SVG Export Plug-In . SVG Version: 6.00 Build 0)  -->
<svg version="1.1" id="Layer_1" xmlns="http://www.w3.org/2000/svg" xmlns:xlink="http://www.w3.org/1999/xlink" x="0px" y="0px"
	 viewBox="0 0 40 40" style="enable-background:new 0 0 40 40;" xml:space="preserve">
<style type="text/css">
	.st0{fill:#FFA500;}
	.st1{fill:#FFA500;stroke:#FFA500;stroke-width:2;stroke-linejoin:round;}
</style>
<g id="night">
	<g transform="translate(20,20)">
		<g>
			<polygon class="st0" points="-10.1,-10.9 -9.4,-9.7 -8.1,-9.1 -9.4,-8.4 -10.1,-7.2 -10.6,-8.4 -11.9,-9.1 -10.6,-9.7 			"/>
		</g>
		<g>
			<polygon class="st0" points="9.9,-0.9 10.6,0.3 11.9,0.9 10.6,1.6 9.9,2.8 9.4,1.6 8.1,0.9 9.4,0.3 			"/>
		</g>
		<g>
			<path class="st1" d="M1.2,0.8c0-3.7,2-6.9,5-8.7c-1.5-0.9-3.2-1.3-5-1.3c-5.5,0-10,4.5-10,10s4.5,10,10,10c1.8,0,3.5-0.5,5-1.3
				C3.2,7.9,1.2,4.5,1.2,0.8z"/>
		</g>
	</g>
</g>
</svg>
