<?xml version="1.0" encoding="utf-8"?>
<!-- Generator: Adobe Illustrator 26.2.1, SVG Export Plug-In . SVG Version: 6.00 Build 0)  -->
<svg version="1.1" id="Layer_1" xmlns="http://www.w3.org/2000/svg" xmlns:xlink="http://www.w3.org/1999/xlink" x="0px" y="0px"
	 viewBox="0 0 40 40" style="enable-background:new 0 0 40 40;" xml:space="preserve">
<style type="text/css">
	.st0{fill:none;stroke:#FFA500;stroke-width:2;stroke-linecap:round;}
	.st1{fill:#FFA500;stroke:#FFA500;stroke-width:2;}
	.st2{fill:#C6DEFF;stroke:#FFFFFF;stroke-width:1.2;stroke-linejoin:round;}
</style>
<g id="cloudy-day-1">
	<g transform="translate(20,10)">
		<g transform="translate(0,16)">
			<g>
				<g>
					<line class="st0" x1="-7.2" y1="0.5" x2="-7.2" y2="3.3"/>
				</g>
				<g transform="rotate(45)">
					<line class="st0" x1="-10.8" y1="8" x2="-10.8" y2="10.8"/>
				</g>
				<g transform="rotate(90)">
					<line class="st0" x1="-8.1" y1="15.8" x2="-8.1" y2="18.7"/>
				</g>
				<g transform="rotate(135)">
					<line class="st0" x1="-0.6" y1="19.4" x2="-0.6" y2="22.3"/>
				</g>
				<g transform="rotate(180)">
					<line class="st0" x1="7.2" y1="16.7" x2="7.2" y2="19.5"/>
				</g>
				<g transform="rotate(225)">
					<line class="st0" x1="10.8" y1="9.2" x2="10.8" y2="12.1"/>
				</g>
				<g transform="rotate(270)">
					<line class="st0" x1="8.1" y1="1.3" x2="8.1" y2="4.2"/>
				</g>
				<g transform="rotate(315)">
					<line class="st0" x1="0.6" y1="-2.3" x2="0.6" y2="0.6"/>
				</g>
			</g>
			<circle class="st1" cx="-7.2" cy="-8.1" r="4.8"/>
		</g>
		<g>
			<path class="st2" d="M19.2,15.9c0-4.4-3.5-7.8-7.8-7.8c-1,0-1.8,0.2-2.7,0.5c-0.3-3.2-3-5.9-6.3-5.9C-1.1,2.6-4,5.5-4,9
				c0,0.8,0.2,1.5,0.4,2.2c-0.3-0.1-0.7-0.1-1-0.1c-3.5,0-6.4,2.9-6.4,6.4c0,3.4,2.8,6.3,6.2,6.4h16.4
				C15.8,23.4,19.2,20.1,19.2,15.9z"/>
		</g>
	</g>
</g>
</svg>
