<?xml version="1.0" encoding="utf-8"?>
<!-- Generator: Adobe Illustrator 26.2.1, SVG Export Plug-In . SVG Version: 6.00 Build 0)  -->
<svg version="1.1" id="Layer_1" xmlns="http://www.w3.org/2000/svg" xmlns:xlink="http://www.w3.org/1999/xlink" x="0px" y="0px"
	 viewBox="0 0 40 40" style="enable-background:new 0 0 40 40;" xml:space="preserve">
<style type="text/css">
	.st0{fill:#FFA500;}
	.st1{fill:#FFA500;stroke:#FFA500;stroke-width:1.6;stroke-linejoin:round;stroke-miterlimit:3.2;}
	.st2{fill:#C6DEFF;stroke:#FFFFFF;stroke-width:1.2;stroke-linejoin:round;}
</style>
<g id="cloudy-night-1">
	<g transform="translate(20,10)">
		<g transform="translate(16,4), scale(0.8)">
			<g>
				<polygon class="st0" points="-17,-9 -16.3,-7.8 -15.2,-7.2 -16.3,-6.6 -17,-5.4 -17.6,-6.6 -18.7,-7.2 -17.6,-7.8 				"/>
			</g>
			<g>
				<polygon class="st0" points="2.1,0.6 2.7,1.7 3.9,2.3 2.7,3 2.1,4.1 1.5,3 0.4,2.3 1.5,1.7 				"/>
			</g>
			<g>
				<path class="st1" d="M-6.3,2.2c0-3.5,1.9-6.6,4.8-8.3C-3-7-4.6-7.3-6.3-7.3c-5.2,0-9.5,4.3-9.5,9.5s4.3,9.5,9.5,9.5
					c1.7,0,3.3-0.5,4.8-1.2C-4.4,8.9-6.3,5.7-6.3,2.2z"/>
			</g>
		</g>
		<g>
			<path class="st2" d="M11,15.2c0-4.4-3.5-7.8-7.8-7.8c-1,0-1.8,0.2-2.7,0.5c-0.3-3.2-3-5.9-6.3-5.9c-3.5,0-6.4,2.9-6.4,6.4
				c0,0.8,0.2,1.5,0.4,2.2c-0.3-0.1-0.7-0.1-1-0.1c-3.5,0-6.4,2.9-6.4,6.4c0,3.4,2.8,6.3,6.2,6.4H3.5C7.7,22.7,11,19.4,11,15.2z"/>
		</g>
	</g>
</g>
</svg>
