<?xml version="1.0" encoding="utf-8"?>
<!-- Generator: Adobe Illustrator 26.2.1, SVG Export Plug-In . SVG Version: 6.00 Build 0)  -->
<svg version="1.1" id="Layer_1" xmlns="http://www.w3.org/2000/svg" xmlns:xlink="http://www.w3.org/1999/xlink" x="0px" y="0px"
	 viewBox="0 0 40 40" style="enable-background:new 0 0 40 40;" xml:space="preserve">
<style type="text/css">
	.st0{fill:#91C0F8;}
</style>
<path class="st0" d="M4.8,24.5c0,3.3,2.7,6,5.9,6.1h17.2c4.1-0.6,7.3-3.9,7.3-7.8c0-4.2-3.4-7.6-7.6-7.6c-0.8,0-1.6,0.1-2.6,0.5
	c-0.2,0.1-0.4,0-0.5-0.1c-0.2-0.1-0.3-0.3-0.3-0.4c-0.3-3.2-2.9-5.7-6-5.7c-3.4,0-6.1,2.7-6.1,6.1c0,0.7,0.2,1.4,0.4,2.1
	c0.1,0.2,0,0.4-0.2,0.6c-0.2,0.2-0.4,0.2-0.6,0.1c-0.2-0.1-0.6-0.1-0.8-0.1C7.5,18.4,4.8,21.1,4.8,24.5z"/>
</svg>
