<?xml version="1.0" encoding="utf-8"?>
<!-- Generator: Adobe Illustrator 26.2.1, SVG Export Plug-In . SVG Version: 6.00 Build 0)  -->
<svg version="1.1" id="Layer_1" xmlns="http://www.w3.org/2000/svg" xmlns:xlink="http://www.w3.org/1999/xlink" x="0px" y="0px"
	 viewBox="0 0 40 40" style="enable-background:new 0 0 40 40;" xml:space="preserve">
<style type="text/css">
	.st0{fill:#C6DEFF;stroke:#FFFFFF;stroke-width:1.2;stroke-linejoin:round;}
	.st1{fill:#57A0EE;stroke:#FFFFFF;stroke-width:1.2;stroke-linejoin:round;}
</style>
<g>
	<g id="cloudy_00000089556616556576941550000001137740316619393415_">
		<g transform="translate(20,10)">
			<g>
				<path class="st0" d="M18.8,10.9C18.8,6.5,15.2,3,11,3c-1,0-1.8,0.2-2.7,0.5C8,0.3,5.3-2.4,2-2.4c-3.5,0-6.4,2.9-6.4,6.4
					c0,0.8,0.2,1.5,0.4,2.2c-0.3-0.1-0.7-0.1-1-0.1c-3.5,0-6.4,2.9-6.4,6.4c0,3.4,2.8,6.3,6.2,6.4h16.4
					C15.4,18.4,18.8,15.1,18.8,10.9z"/>
			</g>
		</g>
	</g>
	<g id="cloudy">
		<g transform="translate(20,10)">
			<g>
				<path class="st1" d="M11.3,14.4c0-4.4-3.5-7.8-7.8-7.8c-1,0-1.8,0.2-2.7,0.5c-0.3-3.2-3-5.9-6.3-5.9c-3.5,0-6.4,2.9-6.4,6.4
					c0,0.8,0.2,1.5,0.4,2.2c-0.3-0.1-0.7-0.1-1-0.1c-3.5,0-6.4,2.9-6.4,6.4c0,3.4,2.8,6.3,6.2,6.4H3.8C8,21.9,11.3,18.6,11.3,14.4z"
					/>
			</g>
		</g>
	</g>
</g>
</svg>
