<?xml version="1.0" encoding="utf-8"?>
<!-- Generator: Adobe Illustrator 26.2.1, SVG Export Plug-In . SVG Version: 6.00 Build 0)  -->
<svg version="1.1" id="Layer_1" xmlns="http://www.w3.org/2000/svg" xmlns:xlink="http://www.w3.org/1999/xlink" x="0px" y="0px"
	 viewBox="0 0 40 40" style="enable-background:new 0 0 40 40;" xml:space="preserve">
<style type="text/css">
	.st0{fill:#599EE7;stroke:#FFFFFF;stroke-width:1.2;stroke-linejoin:round;}
	.st1{fill:none;stroke:#91C0F8;stroke-width:2;stroke-linecap:round;stroke-dasharray:4,7;}
</style>
<g id="rainy-5">
	<g transform="translate(20,10)">
		<g>
			<path class="st0" d="M15.8,7.2c0-4.6-3.7-8.2-8.2-8.2c-1,0-1.9,0.2-2.8,0.5C4.5-3.9,1.7-6.7-1.8-6.7c-3.7,0-6.7,3-6.7,6.7
				c0,0.8,0.2,1.6,0.4,2.3c-0.3-0.1-0.7-0.1-1-0.1c-3.7,0-6.7,3-6.7,6.7c0,3.6,2.9,6.6,6.5,6.7H7.9C12.3,15.1,15.8,11.6,15.8,7.2z"
				/>
		</g>
	</g>
	<g transform="translate(34,46), rotate(10)">
		<line class="st1" x1="-20.7" y1="-13.8" x2="-20.7" y2="-5.8"/>
		<line class="st1" x1="-14.7" y1="-15.8" x2="-14.7" y2="-7.8"/>
	</g>
</g>
</svg>
