<?xml version="1.0" encoding="utf-8"?>
<!-- Generator: Adobe Illustrator 26.2.1, SVG Export Plug-In . SVG Version: 6.00 Build 0)  -->
<svg version="1.1" id="Layer_1" xmlns="http://www.w3.org/2000/svg" xmlns:xlink="http://www.w3.org/1999/xlink" x="0px" y="0px"
	 viewBox="0 0 40 40" style="enable-background:new 0 0 40 40;" xml:space="preserve">
<style type="text/css">
	.st0{fill:#57A0EE;stroke:#FFFFFF;stroke-width:1.2;stroke-linejoin:round;}
	.st1{fill:#91C0F8;}
</style>
<g id="rainy-6">
	<g transform="translate(20,10)">
		<g>
			<path class="st0" d="M15.8,6.9c0-4.6-3.7-8.2-8.2-8.2c-1,0-1.9,0.2-2.8,0.5C4.5-4.2,1.7-7-1.8-7c-3.7,0-6.7,3-6.7,6.7
				c0,0.8,0.2,1.6,0.4,2.3c-0.3-0.1-0.7-0.1-1-0.1c-3.7,0-6.7,3-6.7,6.7c0,3.6,2.9,6.6,6.5,6.7H7.9C12.3,14.8,15.8,11.3,15.8,6.9z"
				/>
		</g>
	</g>
	<g transform="translate(31,46), rotate(10)">
		<path class="st1" d="M-14.6-7.5c-0.5,0.1-1.1-0.3-1.2-0.8c-0.1-0.5,0.3-1.1,0.8-1.2l0,0c0.5-0.1,1.1,0.3,1.2,0.8
			C-13.7-8.1-14-7.6-14.6-7.5z M-14.6-11.5c-0.1,0-0.1,0-0.2,0c-0.6,0-1-0.4-1-1l0-4c0-0.6,0.4-1,1-1c0.6,0,1,0.4,1,1l0,4
			C-13.8-12-14.1-11.6-14.6-11.5z"/>
		<path class="st1" d="M-18.6-5.5c-0.5,0.1-1.1-0.3-1.2-0.8c-0.1-0.5,0.3-1.1,0.8-1.2l0,0c0.5-0.1,1.1,0.3,1.2,0.8S-18-5.6-18.6-5.5
			z M-18.6-9.5c-0.1,0-0.1,0-0.2,0c-0.6,0-1-0.4-1-1l0-4c0-0.6,0.4-1,1-1c0.6,0,1,0.4,1,1l0,4C-17.8-10-18.1-9.6-18.6-9.5z"/>
		<path class="st1" d="M-10.6-6.5c-0.5,0.1-1.1-0.3-1.2-0.8c-0.1-0.5,0.3-1.1,0.8-1.2l0,0c0.5-0.1,1.1,0.3,1.2,0.8
			C-9.7-7.1-10-6.6-10.6-6.5z M-10.6-10.5c-0.1,0-0.1,0-0.2,0c-0.6,0-1-0.4-1-1l0-4c0-0.6,0.4-1,1-1c0.6,0,1,0.4,1,1l0,4
			C-9.8-11-10.1-10.6-10.6-10.5z"/>
	</g>
</g>
</svg>
