<?xml version="1.0" encoding="utf-8"?>
<!-- Generator: Adobe Illustrator 26.2.1, SVG Export Plug-In . SVG Version: 6.00 Build 0)  -->
<svg version="1.1" id="Layer_1" xmlns="http://www.w3.org/2000/svg" xmlns:xlink="http://www.w3.org/1999/xlink" x="0px" y="0px"
	 viewBox="0 0 40 40" style="enable-background:new 0 0 40 40;" xml:space="preserve">
<style type="text/css">
	.st0{fill:#57A0EE;stroke:#FFFFFF;stroke-width:1.2;stroke-linejoin:round;}
	.st1{fill:#FFA500;stroke:#FFFFFF;stroke-width:1.44;stroke-miterlimit:5.76;}
</style>
<g id="thunder">
	<g transform="translate(20,10)">
		<g>
			<path class="st0" d="M15.8,6.4c0-4.6-3.7-8.2-8.2-8.2c-1,0-1.9,0.2-2.8,0.5C4.5-4.7,1.7-7.5-1.8-7.5c-3.7,0-6.7,3-6.7,6.7
				c0,0.8,0.2,1.6,0.4,2.3c-0.3-0.1-0.7-0.1-1-0.1c-3.7,0-6.7,3-6.7,6.7c0,3.6,2.9,6.6,6.5,6.7H7.9C12.3,14.3,15.8,10.8,15.8,6.4z"
				/>
		</g>
		<g transform="translate(-9,28), scale(1.2)">
			<polygon class="st1" points="4.4,-17.9 10.6,-17.9 6.5,-10.7 10.4,-10.7 1.6,-0.4 5,-8.1 1.2,-8.1 			"/>
		</g>
	</g>
</g>
</svg>
