<?xml version="1.0" encoding="utf-8"?>
<!-- Generator: Adobe Illustrator 26.2.1, SVG Export Plug-In . SVG Version: 6.00 Build 0)  -->
<svg version="1.1" id="Layer_1" xmlns="http://www.w3.org/2000/svg" xmlns:xlink="http://www.w3.org/1999/xlink" x="0px" y="0px"
	 viewBox="0 0 40 40" style="enable-background:new 0 0 40 40;" xml:space="preserve">
<style type="text/css">
	.st0{fill:#425C78;}
	.st1{fill:#FFA500;}
</style>
<g id="thunder">
	<g transform="translate(-9,28), scale(1.2)">
		<g>
			<g>
				<polygon class="st0" points="21.7,-8.7 19.9,-3.2 22.6,-3.2 25.8,-8.7 				"/>
				<path class="st0" d="M28.9-3.2h1.9c3.4-0.4,6.1-3.2,6.1-6.5c0-3.5-2.8-6.3-6.3-6.3c-0.7,0-1.4,0.1-2.2,0.4l-0.6,0.2L27.7-16
					c-0.2-2.6-2.4-4.7-5-4.7c-2.8,0-5.1,2.3-5.1,5.1c0,0.6,0.2,1.2,0.3,1.8l0.3,0.9l-0.9-0.3c-0.2-0.1-0.5-0.1-0.7-0.1
					c-2.8,0-5.1,2.3-5.1,5.1c0,2.7,2.2,5,4.9,5.1h1.6l2.4-7.3h8.3l-4.1,7.3"/>
			</g>
			<polygon class="st1" points="21.7,-1.5 25.8,-8.7 21.7,-8.7 19.1,-0.6 23,-0.6 21.4,2.9 25.2,-1.5 			"/>
		</g>
	</g>
</g>
</svg>
