<?xml version="1.0" encoding="utf-8"?>
<!-- Generator: Adobe Illustrator 26.2.1, SVG Export Plug-In . SVG Version: 6.00 Build 0)  -->
<svg version="1.1" id="Layer_1" xmlns="http://www.w3.org/2000/svg" xmlns:xlink="http://www.w3.org/1999/xlink" x="0px" y="0px"
	 viewBox="0 0 40 40" style="enable-background:new 0 0 40 40;" xml:space="preserve">
<style type="text/css">
	.st0{fill:#ADC9EA;}
</style>
<g id="snowy-5">
	<g transform="translate(20,10)">
		<path class="st0" d="M-7.9,13.6H6.8c3.4-0.2,6.1-3,6.1-6.4c0-3.5-2.9-6.4-6.4-6.4c-0.7,0-1.3,0.2-2,0.3L4.2,1.2
			c-0.2,0-0.3,0-0.5-0.1C3.6,1,3.5,0.8,3.5,0.7c-0.3-2.8-2.4-4.9-5-4.9c-2.8,0-5.1,2.3-5.1,5.1c0,0.4,0.1,0.9,0.2,1.3
			c0,0.2,0.1,0.4,0.1,0.6c0,0.2,0,0.4-0.2,0.6c-0.2,0.1-0.4,0.2-0.6,0.1c-0.2-0.1-0.4-0.1-0.7-0.1c-2.8,0-5.1,2.3-5.1,5.1
			C-12.9,11.3-10.7,13.6-7.9,13.6z"/>
		<g>
			<path class="st0" d="M-2.6,20.4h-2.8l1.9-2c0.2-0.2,0.2-0.5,0-0.7c-0.2-0.2-0.5-0.2-0.7,0l-1.7,1.8v-2.4c0-0.3-0.3-0.6-0.6-0.6
				s-0.6,0.3-0.6,0.6v2.4l-1.7-1.8c-0.2-0.2-0.5-0.2-0.7,0c-0.2,0.2-0.2,0.5,0,0.7l1.9,2h-2.8c-0.3,0-0.5,0.2-0.5,0.5
				s0.2,0.5,0.5,0.5h2.7l-1.8,1.8c-0.2,0.2-0.2,0.5,0,0.7c0.1,0.1,0.2,0.1,0.4,0.1c0.1,0,0.3,0,0.4-0.1l1.7-1.8v2.6
				c0,0.3,0.3,0.6,0.6,0.6s0.6-0.3,0.6-0.6v-2.6l1.7,1.8c0.1,0.1,0.2,0.1,0.4,0.1c0.1,0,0.3,0,0.4-0.1c0.2-0.2,0.2-0.5,0-0.7
				l-1.8-1.8h2.7c0.3,0,0.5-0.2,0.5-0.5S-2.3,20.4-2.6,20.4z"/>
			<path class="st0" d="M8.1,18.9H5.5l1.7-1.7c0.2-0.2,0.2-0.5,0-0.7s-0.5-0.2-0.7,0l-1.8,1.8v-2.7c0-0.3-0.2-0.5-0.5-0.5
				s-0.5,0.2-0.5,0.5v2.7l-1.8-1.8c-0.2-0.2-0.5-0.2-0.7,0S1,17,1.1,17.2l1.7,1.7H0.4c-0.3,0-0.5,0.2-0.5,0.5s0.2,0.5,0.5,0.5h2.7
				l-1.9,1.9C1,22,1,22.4,1.1,22.6c0.1,0.1,0.2,0.1,0.4,0.1s0.3,0,0.4-0.1l1.8-1.8v2.7c0,0.3,0.2,0.5,0.5,0.5s0.5-0.2,0.5-0.5v-2.7
				l1.8,1.8c0.1,0.1,0.2,0.1,0.4,0.1s0.3,0,0.4-0.1c0.2-0.2,0.2-0.5,0-0.7l-1.9-1.9h2.8c0.3,0,0.5-0.2,0.5-0.5S8.4,18.9,8.1,18.9z"
				/>
		</g>
	</g>
</g>
</svg>
