<?xml version="1.0" encoding="utf-8"?>
<!-- Generator: Adobe Illustrator 26.2.1, SVG Export Plug-In . SVG Version: 6.00 Build 0)  -->
<svg version="1.1" id="Layer_1" xmlns="http://www.w3.org/2000/svg" xmlns:xlink="http://www.w3.org/1999/xlink" x="0px" y="0px"
	 viewBox="0 0 40 40" style="enable-background:new 0 0 40 40;" xml:space="preserve">
<style type="text/css">
	.st0{fill:#BDC3C9;}
</style>
<path class="st0" d="M22.1,10.6h-10c-0.6,0-1-0.4-1-1s0.4-1,1-1h10c0.6,0,1,0.4,1,1S22.7,10.6,22.1,10.6z"/>
<g>
	<path class="st0" d="M15.7,15H7.3c-0.6,0-1-0.4-1-1s0.4-1,1-1h8.4c0.6,0,1,0.4,1,1S16.3,15,15.7,15z"/>
	<path class="st0" d="M33.9,15h-2.5c-0.6,0-1-0.4-1-1s0.4-1,1-1h2.5c0.6,0,1,0.4,1,1S34.5,15,33.9,15z"/>
	<path class="st0" d="M27.6,15h-7.7c-0.6,0-1-0.4-1-1s0.4-1,1-1h7.7c0.6,0,1,0.4,1,1S28.2,15,27.6,15z"/>
</g>
<g>
	<path class="st0" d="M24.4,19.3h-14c-0.6,0-1-0.4-1-1s0.4-1,1-1h14c0.6,0,1,0.4,1,1S25,19.3,24.4,19.3z"/>
	<path class="st0" d="M34.7,19.3h-5.8c-0.6,0-1-0.4-1-1s0.4-1,1-1h5.8c0.6,0,1,0.4,1,1S35.3,19.3,34.7,19.3z"/>
</g>
<g>
	<path class="st0" d="M20.2,23.7H5.3c-0.6,0-1-0.4-1-1s0.4-1,1-1h14.9c0.6,0,1,0.4,1,1S20.8,23.7,20.2,23.7z"/>
	<path class="st0" d="M31.9,23.7h-7.8c-0.6,0-1-0.4-1-1s0.4-1,1-1h7.8c0.6,0,1,0.4,1,1S32.5,23.7,31.9,23.7z"/>
</g>
<g>
	<path class="st0" d="M12.6,28H7.3c-0.6,0-1-0.4-1-1s0.4-1,1-1h5.3c0.6,0,1,0.4,1,1S13.2,28,12.6,28z"/>
	<path class="st0" d="M32.1,28H17.4c-0.6,0-1-0.4-1-1s0.4-1,1-1h14.7c0.6,0,1,0.4,1,1S32.7,28,32.1,28z"/>
</g>
<path class="st0" d="M28.9,32.4H11.7c-0.6,0-1-0.4-1-1s0.4-1,1-1h17.2c0.6,0,1,0.4,1,1S29.5,32.4,28.9,32.4z"/>
</svg>
