<svg id="eSdvNUHbxeJ1" xmlns="http://www.w3.org/2000/svg" xmlns:xlink="http://www.w3.org/1999/xlink" viewBox="0 0 40 40" shape-rendering="geometricPrecision" text-rendering="geometricPrecision"><style><![CDATA[#eSdvNUHbxeJ2_tr {animation: eSdvNUHbxeJ2_tr__tr 3000ms linear infinite normal forwards}@keyframes eSdvNUHbxeJ2_tr__tr { 0% {transform: translate(20px,19.950001px) rotate(1170deg)} 16.666667% {transform: translate(20px,19.950001px) rotate(1185deg)} 33.333333% {transform: translate(20px,19.950001px) rotate(1200deg)} 50% {transform: translate(20px,19.950001px) rotate(1215deg)} 66.666667% {transform: translate(20px,19.950001px) rotate(1230deg)} 83.333333% {transform: translate(20px,19.950001px) rotate(1245deg)} 100% {transform: translate(20px,19.950001px) rotate(1260deg)}} #eSdvNUHbxeJ22_ts {animation: eSdvNUHbxeJ22_ts__ts 3000ms linear infinite normal forwards}@keyframes eSdvNUHbxeJ22_ts__ts { 0% {transform: translate(-12px,-12px) scale(1,1)} 50% {transform: translate(-12px,-12px) scale(0.762678,0.762678)} 100% {transform: translate(-12px,-12px) scale(1,1)}}]]></style><g id="eSdvNUHbxeJ2_tr" transform="translate(20,19.950001) rotate(1170)"><g transform="translate(-20,-19.950001)" opacity="0.5"><g transform="translate(32 32)"><g><g><path d="M-12,4.3c-.7,0-1.3-.6-1.3-1.3v-3.8c0-.7.6-1.3,1.3-1.3s1.3.6,1.3,1.3v3.8c0,.8-.6,1.3-1.3,1.3Z" fill="#ffa500"/></g><g transform="matrix(.707107 0.707107-.707107 0.707107-.000001 0)"><path d="M-16.1,16c-.2.2-.5.4-.9.4-.7,0-1.3-.6-1.3-1.3v-3.8c0-.7.6-1.3,1.3-1.3s1.3.6,1.3,1.3v3.8c0,.3-.2.6-.4.9Z" fill="#ffa500"/></g><g transform="matrix(0 1-1 0 0 0)"><path d="M-10.7,23.3v3.8c0,.7-.6,1.3-1.3,1.3s-1.3-.6-1.3-1.3v-3.8c0-.7.6-1.3,1.3-1.3s1.3.6,1.3,1.3Z" fill="#ffa500"/></g><g transform="matrix(-.707107 0.707107-.707107-.707107 0 0)"><path d="M0.9,27.4c.2.2.4.5.4.9v3.7c0,.7-.6,1.3-1.3,1.3s-1.3-.6-1.3-1.3v-3.8c0-.7.6-1.3,1.3-1.3.3.1.7.3.9.5Z" fill="#ffa500"/></g><g transform="matrix(-1 0 0-1 0 0)"><path d="M12,22c.7,0,1.3.6,1.3,1.3v3.8c0,.7-.6,1.3-1.3,1.3s-1.3-.6-1.3-1.3v-3.8c0-.7.6-1.3,1.3-1.3Z" fill="#ffa500"/></g><g transform="matrix(-.707107-.707107 0.707107-.707107 0-.000001)"><path d="M16.1,10.4c.2-.2.5-.4.9-.4.7,0,1.3.6,1.3,1.3v3.8c0,.7-.6,1.3-1.3,1.3s-1.3-.6-1.3-1.3v-3.8c0-.3.2-.7.4-.9Z" fill="#ffa500"/></g><g transform="matrix(0-1 1 0 0 0)"><path d="M10.7,3.1v-3.8c0-.7.6-1.3,1.3-1.3s1.3.6,1.3,1.3v3.8c0,.7-.6,1.3-1.3,1.3s-1.3-.6-1.3-1.3Z" fill="#ffa500"/></g><g transform="matrix(.707107-.707107 0.707107 0.707107 0 0)"><path d="M-0.9,-1c-.2-.2-.4-.5-.4-.9v-3.8c0-.7.6-1.3,1.3-1.3s1.3.6,1.3,1.3v3.8c0,.7-.6,1.3-1.3,1.3-.3,0-.7-.2-.9-.4Z" fill="#ffa500"/></g></g><g><g id="eSdvNUHbxeJ22_ts" transform="translate(-12,-12) scale(1,1)"><path d="M-12,-4.5c-4.2,0-7.5-3.4-7.5-7.5s3.4-7.5,7.5-7.5s7.5,3.4,7.5,7.5-3.3,7.5-7.5,7.5Z" transform="translate(12,12)" fill="#ffa500"/></g></g></g></g></g></svg>