<?xml version="1.0" encoding="utf-8"?>
<!-- Generator: Adobe Illustrator 26.2.1, SVG Export Plug-In . SVG Version: 6.00 Build 0)  -->
<svg version="1.1" id="Layer_1" xmlns="http://www.w3.org/2000/svg" xmlns:xlink="http://www.w3.org/1999/xlink" x="0px" y="0px"
	 viewBox="0 0 42 42" style="enable-background:new 0 0 42 42;" xml:space="preserve">
<style type="text/css">
	.st0{fill:none;stroke:#FFA500;stroke-width:2;stroke-linecap:round;}
	.st1{fill:#FFA500;stroke:#FFA500;stroke-width:2;}
	.st2{fill:#57A0EE;stroke:#FFFFFF;stroke-width:1.2;stroke-linejoin:round;}
</style>
<g id="cloudy-day-3">
	<g transform="translate(20,10)">
		<g transform="translate(0,16)">
			<g>
				<g>
					<line class="st0" x1="-6.3" y1="2.7" x2="-6.3" y2="5.7"/>
				</g>
				<g transform="rotate(45)">
					<line class="st0" x1="-8.9" y1="9" x2="-8.9" y2="12"/>
				</g>
				<g transform="rotate(90)">
					<line class="st0" x1="-6.3" y1="15.3" x2="-6.3" y2="18.3"/>
				</g>
				<g transform="rotate(135)">
					<line class="st0" x1="0" y1="17.9" x2="0" y2="20.9"/>
				</g>
				<g transform="rotate(180)">
					<line class="st0" x1="6.3" y1="15.3" x2="6.3" y2="18.3"/>
				</g>
				<g transform="rotate(225)">
					<line class="st0" x1="8.9" y1="9" x2="8.9" y2="12"/>
				</g>
				<g transform="rotate(270)">
					<line class="st0" x1="6.3" y1="2.7" x2="6.3" y2="5.7"/>
				</g>
				<g transform="rotate(315)">
					<line class="st0" x1="0" y1="0.1" x2="0" y2="3.1"/>
				</g>
			</g>
			<circle class="st1" cx="-6.3" cy="-6.3" r="5"/>
		</g>
		<g>
			<path class="st2" d="M21.4,18.1c0-4.6-3.7-8.2-8.2-8.2c-1,0-1.9,0.2-2.8,0.5C10.1,7,7.3,4.2,3.8,4.2c-3.7,0-6.7,3-6.7,6.7
				c0,0.8,0.2,1.6,0.4,2.3c-0.3-0.1-0.7-0.1-1-0.1c-3.7,0-6.7,3-6.7,6.7c0,3.6,2.9,6.6,6.5,6.7h17.2C17.9,26,21.4,22.5,21.4,18.1z"
				/>
		</g>
	</g>
</g>
</svg>
